<svg width="36" height="36" viewBox="0 0 36 36" fill="none" xmlns="http://www.w3.org/2000/svg">
<rect x="0.5" y="0.5" width="35" height="35" rx="7.5" fill="white"/>
<rect x="0.5" y="0.5" width="35" height="35" rx="7.5" stroke="#D9E1E7"/>
<path d="M18.0999 18.6497C18.0416 18.6414 17.9666 18.6414 17.8999 18.6497C16.4333 18.5997 15.2666 17.3997 15.2666 15.9247C15.2666 14.4164 16.4833 13.1914 17.9999 13.1914C19.5083 13.1914 20.7333 14.4164 20.7333 15.9247C20.7249 17.3997 19.5666 18.5997 18.0999 18.6497Z" stroke="#809FB8" stroke-width="1.5" stroke-linecap="round" stroke-linejoin="round"/>
<path d="M23.6171 24.1498C22.1338 25.5081 20.1671 26.3331 18.0005 26.3331C15.8338 26.3331 13.8671 25.5081 12.3838 24.1498C12.4671 23.3665 12.9671 22.5998 13.8588 21.9998C16.1421 20.4831 19.8755 20.4831 22.1421 21.9998C23.0338 22.5998 23.5338 23.3665 23.6171 24.1498Z" stroke="#809FB8" stroke-width="1.5" stroke-linecap="round" stroke-linejoin="round"/>
<path d="M18.0003 26.3337C22.6027 26.3337 26.3337 22.6027 26.3337 18.0003C26.3337 13.398 22.6027 9.66699 18.0003 9.66699C13.398 9.66699 9.66699 13.398 9.66699 18.0003C9.66699 22.6027 13.398 26.3337 18.0003 26.3337Z" stroke="#809FB8" stroke-width="1.5" stroke-linecap="round" stroke-linejoin="round"/>
</svg>
