<svg width="26" height="26" viewBox="0 0 26 26" fill="none" xmlns="http://www.w3.org/2000/svg">
<rect width="26" height="26" rx="6" fill="#F9FBFC"/>
<path d="M11.25 14.75V16.5C11.25 17.4665 10.4665 18.25 9.5 18.25C8.5335 18.25 7.75 17.4665 7.75 16.5C7.75 15.5335 8.5335 14.75 9.5 14.75H11.25ZM11.25 14.75H14.75M11.25 14.75V11.25M14.75 14.75V16.5C14.75 17.4665 15.5335 18.25 16.5 18.25C17.4665 18.25 18.25 17.4665 18.25 16.5C18.25 15.5335 17.4665 14.75 16.5 14.75H14.75ZM14.75 14.75V11.25M14.75 11.25H11.25M14.75 11.25V9.5C14.75 8.5335 15.5335 7.75 16.5 7.75C17.4665 7.75 18.25 8.5335 18.25 9.5C18.25 10.4665 17.4665 11.25 16.5 11.25H14.75ZM11.25 11.25V9.5C11.25 8.5335 10.4665 7.75 9.5 7.75C8.5335 7.75 7.75 8.5335 7.75 9.5C7.75 10.4665 8.5335 11.25 9.5 11.25H11.25Z" stroke="#17181A" stroke-width="1.2" stroke-linecap="round" stroke-linejoin="round"/>
</svg>
